<svg width="360" height="92" viewBox="0 0 360 92" fill="none" xmlns="http://www.w3.org/2000/svg">
  <g transform="translate(4 8)">
    <circle cx="34" cy="38" r="6" fill="#FACC15"/>
    <path d="M34 8A30 30 0 0 1 64 38" stroke="#FACC15" stroke-width="4" fill="none"/>
    <path d="M34 18A20 20 0 0 1 54 38" stroke="#FACC15" stroke-width="4" fill="none"/>
    <path d="M34 -2A40 40 0 0 1 74 38" stroke="#FACC15" stroke-width="4" fill="none"/>
    <path d="M34 -12A50 50 0 0 1 84 38" stroke="#FACC15" stroke-width="4" fill="none"/>
    <circle cx="63" cy="17" r="5" fill="#FACC15"/>
    <circle cx="72" cy="38" r="5" fill="#FACC15"/>
    <circle cx="58" cy="62" r="5" fill="#FACC15"/>
  </g>

  <text x="104" y="48" font-family="Arial, Helvetica, sans-serif" font-size="34" font-weight="800" fill="#5B7CFF">Sure</text>
  <text x="190" y="48" font-family="Arial, Helvetica, sans-serif" font-size="34" font-weight="800" fill="#FFFFFF">Global</text>
  <text x="306" y="31" font-family="Arial, Helvetica, sans-serif" font-size="12" font-weight="700" fill="#FFFFFF">®</text>

  <line x1="104" y1="65" x2="130" y2="65" stroke="#FACC15" stroke-width="2"/>
  <text x="138" y="69" font-family="Arial, Helvetica, sans-serif" font-size="9" font-weight="700" letter-spacing="2" fill="#FFFFFF">INTELLIGENCE | INFRASTRUCTURE | IMPACT</text>
  <line x1="330" y1="65" x2="352" y2="65" stroke="#FACC15" stroke-width="2"/>
</svg>
