<svg width="1400" height="640" viewBox="0 0 1400 640" xmlns="http://www.w3.org/2000/svg">
  <rect width="1400" height="640" fill="#071120"/>
  <g fill="#1d6bff" opacity=".72">
    <ellipse cx="210" cy="220" rx="125" ry="78"/>
    <ellipse cx="310" cy="170" rx="155" ry="80"/>
    <ellipse cx="340" cy="285" rx="105" ry="120"/>
    <ellipse cx="555" cy="215" rx="105" ry="80"/>
    <ellipse cx="690" cy="235" rx="80" ry="115"/>
    <ellipse cx="760" cy="245" rx="95" ry="70"/>
    <ellipse cx="850" cy="210" rx="160" ry="90"/>
    <ellipse cx="1010" cy="230" rx="190" ry="115"/>
    <ellipse cx="1080" cy="350" rx="95" ry="80"/>
    <ellipse cx="1160" cy="425" rx="115" ry="70"/>
    <ellipse cx="495" cy="425" rx="80" ry="130"/>
  </g>
  <g fill="#071120" opacity=".92">
    <circle cx="130" cy="120" r="65"/>
    <circle cx="430" cy="70" r="80"/>
    <circle cx="610" cy="125" r="55"/>
    <circle cx="780" cy="130" r="45"/>
    <circle cx="1110" cy="130" r="70"/>
    <circle cx="930" cy="360" r="75"/>
  </g>
  <g fill="#38bdf8" opacity=".9">
    <pattern id="dots" width="10" height="10" patternUnits="userSpaceOnUse">
      <circle cx="1.5" cy="1.5" r="1.3"/>
    </pattern>
    <rect width="1400" height="640" fill="url(#dots)" mask="url(#mask)"/>
  </g>
  <mask id="mask">
    <rect width="1400" height="640" fill="black"/>
    <g fill="white">
      <ellipse cx="210" cy="220" rx="125" ry="78"/>
      <ellipse cx="310" cy="170" rx="155" ry="80"/>
      <ellipse cx="340" cy="285" rx="105" ry="120"/>
      <ellipse cx="555" cy="215" rx="105" ry="80"/>
      <ellipse cx="690" cy="235" rx="80" ry="115"/>
      <ellipse cx="760" cy="245" rx="95" ry="70"/>
      <ellipse cx="850" cy="210" rx="160" ry="90"/>
      <ellipse cx="1010" cy="230" rx="190" ry="115"/>
      <ellipse cx="1080" cy="350" rx="95" ry="80"/>
      <ellipse cx="1160" cy="425" rx="115" ry="70"/>
      <ellipse cx="495" cy="425" rx="80" ry="130"/>
    </g>
  </mask>
</svg>
